<svg id="Layer_1" data-name="Layer 1" xmlns="http://www.w3.org/2000/svg" viewBox="0 0 100 80"><defs><style>.cls-1{fill:#7ba7fe;}.cls-2{fill:#7aa7fe;}</style></defs><path class="cls-1" d="M32.29,45.39H51.5c7.42,0,11.23,4.52,10.19,11.84-1.27,9-6.56,14.76-14.89,17.48a44.92,44.92,0,0,1-31.42-.88A20.14,20.14,0,0,1,2.91,52.71C3.4,48.58,7.25,45.43,12,45.4,18.74,45.36,25.51,45.39,32.29,45.39Z"/><path class="cls-2" d="M32.07,38.68a17.93,17.93,0,0,1-18-18c.05-9.88,8.38-17.86,18.55-17.77A17.92,17.92,0,0,1,50.29,21C50.26,31,42.27,38.74,32.07,38.68Z"/><path class="cls-1" d="M63.17,45.4c8.69,0,17-.15,25.2.05,5.73.14,9.33,5.2,8.19,10.89-1.63,8.18-6.77,13-14.63,15a35.33,35.33,0,0,1-18.48-.16c-2.49-.68-2.48-.75-1.1-2.88a23,23,0,0,0,3.56-16.78C65.57,49.41,64.45,47.59,63.17,45.4Z"/><path class="cls-1" d="M73,38.68c-6.73.21-13.55-4.88-13.61-13.77-.05-7.07,6.51-13.13,13.75-13.08A13.42,13.42,0,0,1,86.48,25.6,13.23,13.23,0,0,1,73,38.68Z"/></svg>