<svg id="Layer_1" data-name="Layer 1" xmlns="http://www.w3.org/2000/svg" viewBox="0 0 100 80"><defs><style>.cls-1{fill:#7ba7fe;}</style></defs><path class="cls-1" d="M49.69,74.69c-13.56,0-27.11-.08-40.67,0-3.75,0-4.63-1.52-3.37-5.22,1.8-5.25,4-10.35,6.1-15.51.51-1.29,1-2.59,1.57-3.86a11.29,11.29,0,0,0,.89-4.71c-.05-12.4,0-24.79,0-37.18,0-2.54.55-3.09,3.13-3.09h65c2.58,0,3.13.55,3.13,3.08q0,19.16,0,38.3a6.76,6.76,0,0,0,.47,2.56c2.66,6.67,5.28,13.35,8,20a7.67,7.67,0,0,1,.47,3.53,2,2,0,0,1-1.94,2c-.5,0-1,0-1.53,0Zm.14-29.46c9.48,0,19,0,28.42,0,1.08,0,1.4-.26,1.4-1.37q-.08-16.1,0-32.18c0-1.15-.37-1.36-1.42-1.36q-28.41,0-56.83,0c-1.08,0-1.39.27-1.39,1.38q.06,16.08,0,32.17c0,1.14.35,1.36,1.41,1.36C30.89,45.21,40.36,45.23,49.83,45.23Zm0,22.94c2.51,0,5,0,7.52,0,1,0,1.11-.27.78-1.12-.44-1.17-.81-2.36-1.14-3.57a1.19,1.19,0,0,0-1.38-1c-2.64,0-5.29,0-7.93,0-1.52,0-3.42-.65-4.44.27s-1,2.79-1.61,4.19c-.46,1.13,0,1.22,1,1.2C45,68.14,47.38,68.17,49.79,68.17Z"/></svg>