<svg id="Layer_1" data-name="Layer 1" xmlns="http://www.w3.org/2000/svg" viewBox="0 0 100 80"><defs><style>.cls-1{fill:#7ba7fe;}</style></defs><path class="cls-1" d="M27.86,46.22a20.22,20.22,0,0,0-.8,4.92c0,.81-.79,1.41-1.34,1.78a11.34,11.34,0,0,0-4.89,7.65,18.7,18.7,0,0,0-.48,6.61c.36,2.28,4,4,6,2.9a1.48,1.48,0,0,0,.79-1.63A1.38,1.38,0,0,0,26,67.25a4.9,4.9,0,0,0-.77,0c-2.27,0-2.21,0-2.26-2.4-.07-3.35,1.71-5.83,3.77-8.14,1.06-1.18,2.25-1.11,3.36.09a11.85,11.85,0,0,1,3.52,9.66c-.07.59-.27.84-.88.81s-1.2,0-1.8,0a1.51,1.51,0,0,0-.21,3c2.24.43,5.51-.39,5.58-3.65a35.73,35.73,0,0,0-.89-7.09,9.42,9.42,0,0,0-3.9-6.06c-.62-.48-1.1-1.07-1.67-1.57a.86.86,0,0,1-.32-.79,15.6,15.6,0,0,1,.82-4.27,5,5,0,0,1,5.14-3.05.63.63,0,0,1,.6.54,12.63,12.63,0,0,0,3.3,4.7,84.52,84.52,0,0,0,9.17,8c.44.34.78.58,1.33.13a74.19,74.19,0,0,0,10.74-9.76,8.34,8.34,0,0,0,1.86-3.05c.08-.26.14-.65.56-.59,1.58.24,3.27.15,4.3,1.81A12.81,12.81,0,0,1,69,51.28c.07.69-.56.67-.94.86A5.38,5.38,0,0,0,65,57.72a5.32,5.32,0,0,0,4.1,4.43,5.3,5.3,0,0,0,3.57-9.91,1.85,1.85,0,0,1-1.3-2,15.76,15.76,0,0,0-1-4.32,20.19,20.19,0,0,1,6.54,4.93,21.8,21.8,0,0,1,5.55,16.71c-.34,4.54-3.11,7.64-7.66,8.65a33.59,33.59,0,0,1-7.27.79q-18.27,0-36.55,0A28.83,28.83,0,0,1,22.72,76a8.7,8.7,0,0,1-6.64-8.24c-.66-9,2.91-16.08,10.56-21A1.89,1.89,0,0,1,27.86,46.22Z"/><path class="cls-1" d="M67.59,21.31c-.64,8.54-3.65,16-10.09,21.8-5.15,4.65-11.34,4.7-16.45,0A29.51,29.51,0,0,1,31,19.55c.28-7.87,7.14-15.16,15-16.36A18.27,18.27,0,0,1,67.4,18.62C67.55,19.51,67.53,20.42,67.59,21.31Z"/><path class="cls-1" d="M72.7,57a2.48,2.48,0,0,1-2.44,2.46A2.57,2.57,0,0,1,67.82,57a2.49,2.49,0,0,1,2.53-2.5A2.41,2.41,0,0,1,72.7,57Z"/></svg>