<svg id="Layer_1" data-name="Layer 1" xmlns="http://www.w3.org/2000/svg" viewBox="0 0 100 80"><defs><style>.cls-1{fill:#7ba7fe;}</style></defs><path class="cls-1" d="M74.28,26.1a24,24,0,0,1-3.81,13.58Q61.56,53.59,52.62,67.49c-.13.19-.24.4-.37.59-1.22,1.79-3,1.81-4.13,0-2.21-3.39-4.38-6.81-6.56-10.22L29.9,39.66A24.12,24.12,0,1,1,73.74,21.43,19.19,19.19,0,0,1,74.28,26.1ZM50.21,37.6a11,11,0,1,0-11-11A11,11,0,0,0,50.21,37.6Z"/><path class="cls-1" d="M49.71,77.38a69.18,69.18,0,0,1-21.64-3.29c-3.22-1.11-6.29-2.5-8.69-5a6.53,6.53,0,0,1-.09-9.52,19.53,19.53,0,0,1,8-4.88c1.53-.57,3.11-1,4.67-1.46a1.23,1.23,0,0,1,1.68.66q5.1,8,10.26,16c2.57,4,7.59,4.81,11,1.88a8.9,8.9,0,0,0,1.7-2.07c3.31-5.18,6.65-10.35,9.92-15.56a1.64,1.64,0,0,1,2.22-.87c3.75,1.08,7.44,2.26,10.6,4.67,5,3.8,5,8.68.12,12.51-3.23,2.51-7,3.79-10.92,4.79A77,77,0,0,1,49.71,77.38Z"/></svg>