<svg id="Layer_1" data-name="Layer 1" xmlns="http://www.w3.org/2000/svg" viewBox="0 0 100 80"><defs><style>.cls-1{fill:#7ba7fe;}</style></defs><path class="cls-1" d="M49.57,66.17H23.29c-3.39,0-5-1.61-5-5q0-20.26,0-40.54c0-3.49,1.59-5.06,5.07-5.06,3.92,0,7.85,0,11.78,0,.94,0,1.19.26,1.17,1.18s0,1.86-1.25,2.29a3.39,3.39,0,0,0-1.95,2.3,1,1,0,0,1-1.16.79c-2,0-4.05,0-6.08,0-.78,0-1.07.18-1.07,1q0,15.56,0,31.12c0,.79.2,1.05,1,1.05q23.79,0,47.6,0c.82,0,1-.25,1-1.05q0-15.55,0-31.12c0-.85-.29-1.05-1.07-1-1.82.05-3.64,0-5.46,0a1,1,0,0,1-1.16-.79,3.9,3.9,0,0,0-2.37-2.54c-1.53-.56-.85-1.81-.82-2.73s1-.45,1.52-.46c3.72,0,7.44,0,11.15,0,2.94,0,4.65,1.62,4.7,4.56.06,2.72,0,5.45,0,8.18V61.15c0,2.8-1.22,4.51-3.53,4.94a9.43,9.43,0,0,1-1.6.08Zm.06-4.29H52c.77,0,1.31-.37,1.32-1.17a1.11,1.11,0,0,0-1.2-1.15q-2.48-.08-5,0A1.1,1.1,0,0,0,46,60.72c0,.79.55,1.15,1.32,1.16Z"/><path class="cls-1" d="M49.93,44.86H38a3.1,3.1,0,0,1-2.91-4.4c.18-.44.52-.34.82-.35.87,0,1.74,0,2.6,0s1.55-.27,1.55-1.2-.68-1.14-1.47-1.12h-.75c-3,0-2.94,0-2.79-3,0-.63.21-.89.86-.86.87.05,1.74,0,2.61,0s1.54-.26,1.54-1.2-.67-1.13-1.47-1.11a10.73,10.73,0,0,1-2.72,0c-1.68-.41-.47-1.83-.77-2.76-.18-.54-.12-1.16.81-1.1s1.9,0,2.85,0c.78,0,1.31-.4,1.3-1.18s-.55-1.12-1.34-1.1c-1,0-1.9,0-2.85,0-.59,0-.83-.23-.8-.8s0-.91,0-1.37c.07-1.75.84-2.62,2.57-2.66.87,0,1-.35,1-1.1,0-1.9,0-3.8,0-5.7a11.27,11.27,0,0,1,22.39-1.56,54.06,54.06,0,0,1,.2,7.42c0,.67.17.9.89.93,1.84.08,2.58.92,2.59,2.73a8.42,8.42,0,0,0,0,.87c.14,1-.21,1.35-1.21,1.25-.82-.08-1.66,0-2.48,0s-1.23.29-1.27,1,.5,1.19,1.25,1.23,1.65,0,2.48,0c.25,0,.58-.1.73,0,1.08.84.26,2,.48,3,.12.53-.1.85-.73.83-1,0-1.9,0-2.85,0-.73,0-1.34.24-1.36,1.09s.61,1.19,1.41,1.2,1.82,0,2.72,0c.67,0,.82.24.84.86.11,3,.13,3-2.9,3-.88,0-2-.22-2,1.13s1.13,1.17,2,1.18h.49c2.39,0,2.39,0,2.39,1.38,0,2.57-.65,3.37-2.8,3.37Zm0-24.28c1.94,0,3.88,0,5.82,0,.58,0,.93-.1.91-.8-.06-2.15.06-4.3-.12-6.44a6.56,6.56,0,0,0-7-6,6.73,6.73,0,0,0-6.4,6.49c0,1.94,0,3.89,0,5.83,0,.73.27.91.94.89C46.07,20.56,48,20.58,50,20.58Zm-3,10.4a2.15,2.15,0,0,0,.7,1.91c1.31.85,1.27,2.06,1.19,3.34a3.09,3.09,0,0,0,0,.74,1,1,0,0,0,1.08.94,1,1,0,0,0,1.15-1,8.37,8.37,0,0,0,0-1.12,2.77,2.77,0,0,1,1-2.76,2.77,2.77,0,0,0,.35-3.62,3.08,3.08,0,0,0-3.32-1.33A3.12,3.12,0,0,0,46.93,31Z"/><path class="cls-1" d="M49.5,77.51c-4.54,0-9.09,0-13.64,0-.86,0-1.12-.25-1.11-1.11,0-2.66,1.56-4.25,4.22-4.28h.12c1.88,0,1.87,0,1.88-1.9s-.27-1.78,1.78-1.78c4.75,0,9.51,0,14.26,0,1.05,0,1.32.31,1.29,1.33-.06,2.32,0,2.32,2.25,2.38a4,4,0,0,1,4,4.78c-.13.82-.68.58-1.12.58C58.76,77.52,54.13,77.51,49.5,77.51Z"/><path class="cls-1" d="M50,15.56c1.16,0,2.31,0,3.46,0,.6,0,.94.13.87.82a7.22,7.22,0,0,0,0,1.23c0,.52-.15.73-.7.73-2.47,0-4.93,0-7.4,0-.55,0-.67-.25-.71-.74-.15-2-.16-2,1.89-2Z"/></svg>