<svg id="Layer_1" data-name="Layer 1" xmlns="http://www.w3.org/2000/svg" viewBox="0 0 100 80"><defs><style>.cls-1{fill:#7ba7fe;}</style></defs><path class="cls-1" d="M50,77.38q-13.24,0-26.48,0c-2.94,0-4.37-1.18-4.83-4C17.8,67.57,16.91,61.8,16,56c-.82-5.31-1.61-10.62-2.44-15.93-.31-2,.6-3.55,2.6-3.94.82-.16.75-.57.67-1.12A8.3,8.3,0,0,1,16.6,32a4,4,0,0,1,3.9-3.35c5.69-.05,11.39,0,17.08,0a5.32,5.32,0,0,1,4.1,2.1c1.28,1.5,2.58,3,3.81,4.53a2.15,2.15,0,0,0,1.87.87c7.94,0,15.87,0,23.81,0,3.09,0,4.06.86,4.51,3.91q1.93,13.25,3.89,26.49c.33,2.22.64,4.44,1,6.66.39,2.67-1,4.25-3.66,4.25Q63.45,77.4,50,77.38Z"/><path class="cls-1" d="M52.34,3h19C74,3,75.21,4.23,75.21,6.86c0,8,0,16,0,24,0,.89-.19,1.26-1.14,1.17a14.88,14.88,0,0,0-2.67,0c-1,.09-1.15-.28-1.15-1.17,0-7.23,0-14.47,0-21.71,0-1-.18-1.32-1.25-1.31q-16.56.06-33.1,0c-1,0-1.24.23-1.23,1.21.05,5,0,9.91,0,14.87,0,.89-.2,1.23-1.14,1.17a33.84,33.84,0,0,0-3.49,0c-.54,0-.74-.15-.74-.72,0-6,0-12.08,0-18.11,0-2,1.5-3.26,3.62-3.26Z"/><path class="cls-1" d="M82.78,64.08C81.71,57,80.64,50.24,79.7,43.47c-.52-3.75-.81-7.53-1.24-11.29-.09-.83.07-1.19,1-1.14,1.51.07,3,0,4.53,0a3.14,3.14,0,0,1,3.16,3.87q-1.34,8.94-2.61,17.89c-.5,3.4-1,6.8-1.49,10.2C83,63.29,82.92,63.54,82.78,64.08Z"/><path class="cls-1" d="M52.45,13.42H62c1.94,0,3.06,1,3,2.69s-1.13,2.64-3,2.65q-9.75,0-19.49,0A2.62,2.62,0,0,1,39.81,17a2.65,2.65,0,0,1,.66-2.89,2.74,2.74,0,0,1,2.12-.72Z"/><path class="cls-1" d="M53.74,28.58c-2.75,0-5.5,0-8.25,0a1.69,1.69,0,0,1-1.43-.54,8,8,0,0,0-3.74-2.44c-.69-.2-.63-.55-.34-1a2.48,2.48,0,0,1,2.16-1.35c6.78,0,13.55,0,20.32,0A2.49,2.49,0,0,1,65,25.85a2.54,2.54,0,0,1-2.56,2.71c-2.91.05-5.81,0-8.71,0Z"/></svg>